<svg xmlns="http://www.w3.org/2000/svg" viewBox="0 0 520 560" width="520" height="560" role="img" aria-label="Crypto Vault">
 <defs>
  <linearGradient id="bg-npy-inv-crypto" x1="0" y1="0" x2="0" y2="1">
   <stop offset="0" stop-color="#F5F6FF"/><stop offset="1" stop-color="#E4E6FA"/>
  </linearGradient>
  <linearGradient id="card-npy-inv-crypto" x1="0" y1="0" x2="1" y2="1">
   <stop offset="0" stop-color="#7C3AED"/><stop offset="0.55" stop-color="#5B21B6"/><stop offset="1" stop-color="#3B0F73"/>
  </linearGradient>
  <linearGradient id="sheen-npy-inv-crypto" x1="0" y1="0" x2="1" y2="1">
   <stop offset="0" stop-color="#ffffff" stop-opacity="0.30"/><stop offset="0.5" stop-color="#ffffff" stop-opacity="0.04"/><stop offset="1" stop-color="#ffffff" stop-opacity="0.16"/>
  </linearGradient>
  <linearGradient id="chip-npy-inv-crypto" x1="0" y1="0" x2="1" y2="1">
   <stop offset="0" stop-color="#F3DFA6"/><stop offset="0.5" stop-color="#D9B75F"/><stop offset="1" stop-color="#B48F38"/>
  </linearGradient>
  <linearGradient id="acc-npy-inv-crypto" x1="0" y1="0" x2="1" y2="1">
   <stop offset="0" stop-color="#34D399"/><stop offset="1" stop-color="#10B981"/>
  </linearGradient>
  <filter id="sh-npy-inv-crypto" x="-30%" y="-30%" width="170%" height="170%">
   <feDropShadow dx="0" dy="16" stdDeviation="18" flood-color="#1E1B4B" flood-opacity="0.30"/>
  </filter>
  <filter id="sh2-npy-inv-crypto" x="-30%" y="-30%" width="170%" height="170%">
   <feDropShadow dx="0" dy="8" stdDeviation="9" flood-color="#1E1B4B" flood-opacity="0.22"/>
  </filter>
 </defs>
 <rect width="520" height="560" fill="url(#bg-npy-inv-crypto)"/>
 <ellipse cx="260.0" cy="486" rx="150" ry="20" fill="#000" opacity="0.07"/>
 <g transform="translate(260.0,258) translate(-135,-135)" filter="url(#sh-npy-inv-crypto)">
  <rect width="270" height="270" rx="34" fill="url(#card-npy-inv-crypto)"/>
  <g clip-path="inset(0 round 34px)">
   <rect width="270" height="270" rx="34" fill="url(#sheen-npy-inv-crypto)"/>
   <circle cx="238" cy="34" r="72" fill="#fff" fill-opacity="0.07"/>
  </g>
  <rect x="0.8" y="0.8" width="268.4" height="268.4" rx="33.4" fill="none" stroke="#fff" stroke-opacity="0.22"/>
  <g transform="translate(135,124)"><g fill="#fff" fill-opacity="0.92"><rect x="-56" y="-52" width="112" height="104" rx="14"/></g><g fill="none" stroke="url(#acc-npy-inv-crypto)" stroke-width="8"><circle cx="0" cy="0" r="30"/></g><g stroke="url(#acc-npy-inv-crypto)" stroke-width="8" stroke-linecap="round"><path d="M0 -42 V-30 M0 30 V42 M-42 0 H-30 M30 0 H42"/></g></g>
  <text x="135" y="232" text-anchor="middle" font-family="Inter,Arial,sans-serif" font-size="13"
        font-weight="700" fill="#fff" fill-opacity="0.95" letter-spacing="1.6">CRYPTO VAULT</text>
 </g></svg>