<svg xmlns="http://www.w3.org/2000/svg" viewBox="0 0 520 560" width="520" height="560" role="img" aria-label="NovaPay METAL card">
 <defs>
  <linearGradient id="bg-npy-crd-metal" x1="0" y1="0" x2="0" y2="1">
   <stop offset="0" stop-color="#F5F6FF"/><stop offset="1" stop-color="#E4E6FA"/>
  </linearGradient>
  <linearGradient id="card-npy-crd-metal" x1="0" y1="0" x2="1" y2="1">
   <stop offset="0" stop-color="#2A2A3E"/><stop offset="0.55" stop-color="#16161F"/><stop offset="1" stop-color="#0A0A10"/>
  </linearGradient>
  <linearGradient id="sheen-npy-crd-metal" x1="0" y1="0" x2="1" y2="1">
   <stop offset="0" stop-color="#ffffff" stop-opacity="0.30"/><stop offset="0.5" stop-color="#ffffff" stop-opacity="0.04"/><stop offset="1" stop-color="#ffffff" stop-opacity="0.16"/>
  </linearGradient>
  <linearGradient id="chip-npy-crd-metal" x1="0" y1="0" x2="1" y2="1">
   <stop offset="0" stop-color="#F3DFA6"/><stop offset="0.5" stop-color="#D9B75F"/><stop offset="1" stop-color="#B48F38"/>
  </linearGradient>
  <linearGradient id="acc-npy-crd-metal" x1="0" y1="0" x2="1" y2="1">
   <stop offset="0" stop-color="#C8CBF5"/><stop offset="1" stop-color="#9FA3E8"/>
  </linearGradient>
  <filter id="sh-npy-crd-metal" x="-30%" y="-30%" width="170%" height="170%">
   <feDropShadow dx="0" dy="16" stdDeviation="18" flood-color="#1E1B4B" flood-opacity="0.30"/>
  </filter>
  <filter id="sh2-npy-crd-metal" x="-30%" y="-30%" width="170%" height="170%">
   <feDropShadow dx="0" dy="8" stdDeviation="9" flood-color="#1E1B4B" flood-opacity="0.22"/>
  </filter>
 </defs>
 <rect width="520" height="560" fill="url(#bg-npy-crd-metal)"/>
 <ellipse cx="260.0" cy="486" rx="150" ry="20" fill="#000" opacity="0.07"/>
 <g transform="translate(260.0,262) rotate(-9) translate(-160,-105)" filter="url(#sh-npy-crd-metal)">
  <rect width="320" height="210" rx="22" fill="url(#card-npy-crd-metal)"/>
  <g clip-path="inset(0 round 22px)"><g fill="none" stroke="#fff" stroke-opacity="0.11" stroke-width="14"><path d="M-30 200 A 210 210 0 0 1 250 -10"/><path d="M20 220 A 210 210 0 0 1 300 10"/></g>
   <rect width="320" height="210" rx="22" fill="url(#sheen-npy-crd-metal)"/>
  </g>
  <rect x="0.8" y="0.8" width="318.4" height="208.4" rx="21.4" fill="none" stroke="#fff" stroke-opacity="0.22"/>
  <g transform="translate(30,82)"><rect width="46" height="34" rx="6" fill="url(#chip-npy-crd-metal)"/><g stroke="#8A6A22" stroke-width="1.6" opacity="0.65"><path d="M0 11 H46 M0 23 H46 M15 0 V34 M31 0 V34"/></g></g>
  <g transform="translate(104,99)"><path d="M0 -7 A 7 7 0 0 1 0 7" fill="none" stroke="#fff" stroke-width="3" stroke-linecap="round" opacity="0.95"/><path d="M0 -12 A 12 12 0 0 1 0 12" fill="none" stroke="#fff" stroke-width="3" stroke-linecap="round" opacity="0.83"/><path d="M0 -17 A 17 17 0 0 1 0 17" fill="none" stroke="#fff" stroke-width="3" stroke-linecap="round" opacity="0.71"/><path d="M0 -22 A 22 22 0 0 1 0 22" fill="none" stroke="#fff" stroke-width="3" stroke-linecap="round" opacity="0.59"/></g>
  <text x="30" y="46" font-family="Inter,Arial,sans-serif" font-size="21" font-weight="700"
        fill="#fff" letter-spacing="1.2">NovaPay</text>
  <text x="290" y="46" text-anchor="end" font-family="Inter,Arial,sans-serif" font-size="11.5"
        font-weight="700" fill="#E9E4FF" letter-spacing="2.4">METAL</text>
  <text x="30" y="160" font-family="'Courier New',monospace" font-size="19" fill="#fff"
        fill-opacity="0.92" letter-spacing="2.4">5241  ••••  ••••  8073</text>
  <text x="30" y="186" font-family="Inter,Arial,sans-serif" font-size="11" fill="#fff"
        fill-opacity="0.72" letter-spacing="1.1">VALID THRU  09/29</text>
  <g transform="translate(246,168)" fill="#fff" fill-opacity="0.9">
   <circle cx="12" cy="10" r="11"/><circle cx="30" cy="10" r="11" fill-opacity="0.55"/>
  </g>
 </g></svg>