<svg xmlns="http://www.w3.org/2000/svg" viewBox="0 0 520 560" width="520" height="560" role="img" aria-label="DRC">
  <defs>
    <radialGradient id="rub" cx="38%" cy="30%">
      <stop offset="0" stop-color="#3A3A40"/><stop offset="0.62" stop-color="#1C1C20"/><stop offset="1" stop-color="#0B0B0D"/>
    </radialGradient>
    <linearGradient id="rim" x1="0" y1="0" x2="1" y2="1">
      <stop offset="0" stop-color="#FFF3A8"/><stop offset="0.5" stop-color="#FFE958"/><stop offset="1" stop-color="#D9BE1F"/>
    </linearGradient>
    <linearGradient id="bg" x1="0" y1="0" x2="0" y2="1">
      <stop offset="0" stop-color="#FFFFFF"/><stop offset="1" stop-color="#EDE9F5"/>
    </linearGradient>
    <filter id="sh" x="-30%" y="-30%" width="160%" height="160%">
      <feDropShadow dx="0" dy="14" stdDeviation="16" flood-color="#4E018F" flood-opacity="0.22"/>
    </filter>
  </defs>
  <rect width="520" height="560" fill="url(#bg)"/>
  <ellipse cx="260" cy="500" rx="176" ry="20" fill="#4E018F" opacity="0.13"/>
  <g filter="url(#sh)">
    <circle cx="260" cy="260" r="218" fill="url(#rub)"/>
    <polygon points="471.2,241.5 471.2,278.5 406.6,313.4 413.6,287.1" fill="#2A2A2E"/>
    <polygon points="460.4,329.0 445.4,362.8 372.2,368.4 389.3,347.2" fill="#2A2A2E"/>
    <polygon points="415.0,404.6 387.6,429.3 318.4,404.6 342.7,392.3" fill="#2A2A2E"/>
    <polygon points="342.8,455.1 307.7,466.6 254.6,415.9 281.7,414.5" fill="#2A2A2E"/>
    <polygon points="256.3,472.0 219.5,468.1 191.6,400.2 217.0,410.0" fill="#2A2A2E"/>
    <polygon points="170.4,452.1 138.4,433.7 140.5,360.3 159.7,379.5" fill="#2A2A2E"/>
    <polygon points="100.0,399.1 78.3,369.2 110.0,303.0 119.8,328.4" fill="#2A2A2E"/>
    <polygon points="57.3,322.0 49.6,285.8 105.5,238.3 104.1,265.4" fill="#2A2A2E"/>
    <polygon points="49.6,234.2 57.3,198.0 127.7,177.3 115.4,201.6" fill="#2A2A2E"/>
    <polygon points="78.3,150.8 100.0,120.9 172.8,130.7 151.6,147.8" fill="#2A2A2E"/>
    <polygon points="138.4,86.3 170.4,67.9 232.9,106.4 206.6,113.4" fill="#2A2A2E"/>
    <polygon points="219.5,51.9 256.3,48.0 297.7,108.6 270.9,104.4" fill="#2A2A2E"/>
    <polygon points="307.7,53.4 342.8,64.9 356.0,137.1 333.2,122.3" fill="#2A2A2E"/>
    <polygon points="387.6,90.7 415.0,115.4 397.7,186.8 382.9,164.0" fill="#2A2A2E"/>
    <polygon points="445.4,157.2 460.4,191.0 415.6,249.1 411.4,222.3" fill="#2A2A2E"/>
    <circle cx="260" cy="260" r="156" fill="#141417"/>
    <circle cx="260" cy="260" r="152" fill="none" stroke="#2E2E34" stroke-width="2"/>
    <circle cx="260" cy="260" r="104" fill="none" stroke="#0A0A0C" stroke-width="10"/>
    <circle cx="260" cy="260" r="90" fill="url(#rim)"/>
    <circle cx="260" cy="260" r="34" fill="#5A5D6B"/>
    <circle cx="316.0" cy="260.0" r="7" fill="#8C8FA0"/><circle cx="299.6" cy="299.6" r="7" fill="#8C8FA0"/><circle cx="260.0" cy="316.0" r="7" fill="#8C8FA0"/><circle cx="220.4" cy="299.6" r="7" fill="#8C8FA0"/><circle cx="204.0" cy="260.0" r="7" fill="#8C8FA0"/><circle cx="220.4" cy="220.4" r="7" fill="#8C8FA0"/><circle cx="260.0" cy="204.0" r="7" fill="#8C8FA0"/><circle cx="299.6" cy="220.4" r="7" fill="#8C8FA0"/>
    <circle cx="260" cy="260" r="14" fill="#2E3140"/>
  </g>
  <path id="arc" d="M 126 260 a 134 134 0 0 0 268 0" fill="none"/>
  <text font-family="Barlow Condensed, Impact, sans-serif" font-size="27" font-weight="700" fill="#C9C4D6" letter-spacing="3">
    <textPath href="#arc" startOffset="50%" text-anchor="middle">DRC</textPath>
  </text>
  <text x="260" y="536" text-anchor="middle" font-family="Inter, sans-serif" font-size="21" font-weight="600" fill="#4E018F" letter-spacing="1.5">12.4-24</text>
</svg>
