<svg xmlns="http://www.w3.org/2000/svg" viewBox="0 0 1200 800" width="1200" height="800" role="img" aria-label="NovaPay savings pots in the app">
 <defs>
  <linearGradient id="g-scenesavings" x1="0" y1="0" x2="1" y2="1">
   <stop offset="0" stop-color="#6366F1"/><stop offset="0.55" stop-color="#4F46E5"/><stop offset="1" stop-color="#312E9E"/>
  </linearGradient>
  <linearGradient id="p-scenesavings" x1="0" y1="0" x2="1" y2="1">
   <stop offset="0" stop-color="#ffffff" stop-opacity="0.96"/><stop offset="1" stop-color="#ffffff" stop-opacity="0.80"/>
  </linearGradient>
  <linearGradient id="a-scenesavings" x1="0" y1="1" x2="1" y2="0">
   <stop offset="0" stop-color="#34D399"/><stop offset="1" stop-color="#10B981"/>
  </linearGradient>
  <filter id="f-scenesavings" x="-20%" y="-20%" width="140%" height="140%">
   <feDropShadow dx="0" dy="20" stdDeviation="24" flood-color="#1E1B4B" flood-opacity="0.34"/>
  </filter>
 </defs>
 <rect width="1200" height="800" fill="url(#g-scenesavings)"/>
 <g opacity="0.5">
  <circle cx="150" cy="120" r="230" fill="#fff" fill-opacity="0.05"/>
  <circle cx="1080" cy="700" r="290" fill="#fff" fill-opacity="0.04"/>
 </g>

 <g transform="translate(434,80) scale(1.0)" filter="url(#f-scenesavings)">
  <rect width="330" height="640" rx="46" fill="#101528"/>
  <rect x="12" y="12" width="306" height="616" rx="36" fill="url(#p-scenesavings)"/>
  <rect x="130" y="26" width="70" height="10" rx="5" fill="#101528" fill-opacity="0.5"/>
  <rect x="34" y="62" width="150" height="16" rx="8" fill="#0f172a" fill-opacity="0.35"/>
  <rect x="34" y="92" width="240" height="46" rx="12" fill="#0f172a" fill-opacity="0.08"/>
  <text x="46" y="124" font-family="Inter,Arial,sans-serif" font-size="30" font-weight="700" fill="#0f172a" fill-opacity="0.78">$12,480.60</text>
  <rect x="34" y="152" width="120" height="12" rx="6" fill="#0f172a" fill-opacity="0.18"/>
  <rect x="34" y="188" width="212" height="18" rx="9" fill="#0f172a" fill-opacity="0.14"/><rect x="218" y="184" width="44" height="26" rx="8" fill="url(#a-scenesavings)" fill-opacity="0.85"/><rect x="34" y="242" width="166" height="18" rx="9" fill="#0f172a" fill-opacity="0.14"/><rect x="218" y="238" width="44" height="26" rx="8" fill="url(#a-scenesavings)" fill-opacity="0.85"/><rect x="34" y="296" width="120" height="18" rx="9" fill="#0f172a" fill-opacity="0.14"/><rect x="218" y="292" width="44" height="26" rx="8" fill="url(#a-scenesavings)" fill-opacity="0.85"/><rect x="34" y="350" width="212" height="18" rx="9" fill="#0f172a" fill-opacity="0.14"/><rect x="218" y="346" width="44" height="26" rx="8" fill="url(#a-scenesavings)" fill-opacity="0.85"/>
 </g>
</svg>