<svg xmlns="http://www.w3.org/2000/svg" viewBox="0 0 1200 800" width="1200" height="800" role="img" aria-label="Meridian international banking">
 <defs>
  <linearGradient id="g-sceneglobal" x1="0" y1="0" x2="1" y2="1">
   <stop offset="0" stop-color="#166534"/><stop offset="0.55" stop-color="#14532D"/><stop offset="1" stop-color="#0B3520"/>
  </linearGradient>
  <linearGradient id="p-sceneglobal" x1="0" y1="0" x2="1" y2="1">
   <stop offset="0" stop-color="#ffffff" stop-opacity="0.96"/><stop offset="1" stop-color="#ffffff" stop-opacity="0.80"/>
  </linearGradient>
  <linearGradient id="a-sceneglobal" x1="0" y1="1" x2="1" y2="0">
   <stop offset="0" stop-color="#E4CB8E"/><stop offset="1" stop-color="#C8A44D"/>
  </linearGradient>
  <filter id="f-sceneglobal" x="-20%" y="-20%" width="140%" height="140%">
   <feDropShadow dx="0" dy="20" stdDeviation="24" flood-color="#06200F" flood-opacity="0.34"/>
  </filter>
 </defs>
 <rect width="1200" height="800" fill="url(#g-sceneglobal)"/>
 <g opacity="0.5">
  <circle cx="150" cy="120" r="230" fill="#fff" fill-opacity="0.05"/>
  <circle cx="1080" cy="700" r="290" fill="#fff" fill-opacity="0.04"/>
 </g>

 <g transform="translate(600,400) scale(1.0)">
  <g fill="none" stroke="#fff" stroke-opacity="0.26" stroke-width="4">
   <circle r="200"/><ellipse rx="82" ry="200"/><ellipse rx="152" ry="200"/>
   <path d="M-200 -66 H200 M-200 0 H200 M-200 66 H200"/>
  </g>
  <path d="M0 0 Q 30.0 -110.0 60 -40" fill="none" stroke="#fff" stroke-opacity="0.34" stroke-width="3" stroke-dasharray="7 9"/><path d="M60 -40 Q -5.0 -95.0 -70 30" fill="none" stroke="#fff" stroke-opacity="0.34" stroke-width="3" stroke-dasharray="7 9"/><path d="M-70 30 Q 20.0 -65.0 110 20" fill="none" stroke="#fff" stroke-opacity="0.34" stroke-width="3" stroke-dasharray="7 9"/><path d="M110 20 Q 35.0 -115.0 -40 -70" fill="none" stroke="#fff" stroke-opacity="0.34" stroke-width="3" stroke-dasharray="7 9"/><path d="M-40 -70 Q 0.0 -85.0 40 80" fill="none" stroke="#fff" stroke-opacity="0.34" stroke-width="3" stroke-dasharray="7 9"/><path d="M40 80 Q -35.0 -60.0 -110 -20" fill="none" stroke="#fff" stroke-opacity="0.34" stroke-width="3" stroke-dasharray="7 9"/><path d="M-110 -20 Q -10.0 -140.0 90 -80" fill="none" stroke="#fff" stroke-opacity="0.34" stroke-width="3" stroke-dasharray="7 9"/><path d="M90 -80 Q 110.0 -95.0 130 70" fill="none" stroke="#fff" stroke-opacity="0.34" stroke-width="3" stroke-dasharray="7 9"/><path d="M130 70 Q 20.0 -10.0 -90 90" fill="none" stroke="#fff" stroke-opacity="0.34" stroke-width="3" stroke-dasharray="7 9"/><circle cx="0" cy="0" r="11" fill="url(#a-sceneglobal)" fill-opacity="0.9"/><circle cx="60" cy="-40" r="7" fill="url(#a-sceneglobal)" fill-opacity="0.9"/><circle cx="-70" cy="30" r="7" fill="url(#a-sceneglobal)" fill-opacity="0.9"/><circle cx="110" cy="20" r="11" fill="url(#a-sceneglobal)" fill-opacity="0.9"/><circle cx="-40" cy="-70" r="7" fill="url(#a-sceneglobal)" fill-opacity="0.9"/><circle cx="40" cy="80" r="7" fill="url(#a-sceneglobal)" fill-opacity="0.9"/><circle cx="-110" cy="-20" r="11" fill="url(#a-sceneglobal)" fill-opacity="0.9"/><circle cx="90" cy="-80" r="7" fill="url(#a-sceneglobal)" fill-opacity="0.9"/><circle cx="130" cy="70" r="7" fill="url(#a-sceneglobal)" fill-opacity="0.9"/><circle cx="-90" cy="90" r="11" fill="url(#a-sceneglobal)" fill-opacity="0.9"/>
 </g>
</svg>