<svg xmlns="http://www.w3.org/2000/svg" viewBox="0 0 520 560" width="520" height="560" role="img" aria-label="Stocks And Shares Isa">
 <defs>
  <linearGradient id="bg-mrd-isa-stocks" x1="0" y1="0" x2="0" y2="1">
   <stop offset="0" stop-color="#F7F5F0"/><stop offset="1" stop-color="#E7E2D6"/>
  </linearGradient>
  <linearGradient id="card-mrd-isa-stocks" x1="0" y1="0" x2="1" y2="1">
   <stop offset="0" stop-color="#5B21B6"/><stop offset="0.55" stop-color="#4C1D95"/><stop offset="1" stop-color="#2E0F63"/>
  </linearGradient>
  <linearGradient id="sheen-mrd-isa-stocks" x1="0" y1="0" x2="1" y2="1">
   <stop offset="0" stop-color="#ffffff" stop-opacity="0.30"/><stop offset="0.5" stop-color="#ffffff" stop-opacity="0.04"/><stop offset="1" stop-color="#ffffff" stop-opacity="0.16"/>
  </linearGradient>
  <linearGradient id="chip-mrd-isa-stocks" x1="0" y1="0" x2="1" y2="1">
   <stop offset="0" stop-color="#F3DFA6"/><stop offset="0.5" stop-color="#D9B75F"/><stop offset="1" stop-color="#B48F38"/>
  </linearGradient>
  <linearGradient id="acc-mrd-isa-stocks" x1="0" y1="0" x2="1" y2="1">
   <stop offset="0" stop-color="#D9B863"/><stop offset="1" stop-color="#B8933C"/>
  </linearGradient>
  <filter id="sh-mrd-isa-stocks" x="-30%" y="-30%" width="170%" height="170%">
   <feDropShadow dx="0" dy="16" stdDeviation="18" flood-color="#08131F" flood-opacity="0.30"/>
  </filter>
  <filter id="sh2-mrd-isa-stocks" x="-30%" y="-30%" width="170%" height="170%">
   <feDropShadow dx="0" dy="8" stdDeviation="9" flood-color="#08131F" flood-opacity="0.22"/>
  </filter>
 </defs>
 <rect width="520" height="560" fill="url(#bg-mrd-isa-stocks)"/>
 <ellipse cx="260.0" cy="486" rx="150" ry="20" fill="#000" opacity="0.07"/>
 <g transform="translate(260.0,258) translate(-135,-135)" filter="url(#sh-mrd-isa-stocks)">
  <rect width="270" height="270" rx="34" fill="url(#card-mrd-isa-stocks)"/>
  <g clip-path="inset(0 round 34px)">
   <rect width="270" height="270" rx="34" fill="url(#sheen-mrd-isa-stocks)"/>
   <circle cx="238" cy="34" r="72" fill="#fff" fill-opacity="0.07"/>
  </g>
  <rect x="0.8" y="0.8" width="268.4" height="268.4" rx="33.4" fill="none" stroke="#fff" stroke-opacity="0.22"/>
  <g transform="translate(135,124)"><g stroke="#fff" stroke-width="9" stroke-linecap="round" fill="none"><path d="M-62 34 L-22 -6 L10 20 L62 -40"/></g><g fill="#fff" fill-opacity="0.85"><circle cx="62" cy="-40" r="9"/></g><g fill="#fff" fill-opacity="0.30"><rect x="-70" y="44" width="20" height="26" rx="5"/><rect x="-36" y="26" width="20" height="44" rx="5"/><rect x="-2" y="36" width="20" height="34" rx="5"/><rect x="32" y="8" width="20" height="62" rx="5"/></g></g>
  <text x="135" y="232" text-anchor="middle" font-family="Inter,Arial,sans-serif" font-size="13"
        font-weight="700" fill="#fff" fill-opacity="0.95" letter-spacing="1.6">STOCKS AND SHARES ISA</text>
 </g></svg>